<svg xmlns="http://www.w3.org/2000/svg" version="1.1" xmlns:xlink="http://www.w3.org/1999/xlink" viewBox="0 0 700 700" style="overflow: hidden; display: block;" width="700" height="700"><defs><linearGradient id="two-15" x1="350" y1="-350" x2="350" y2="350" spreadMethod="pad" gradientUnits="userSpaceOnUse"><stop offset="0%" stop-color="hsl(265, 55%, 30%)" stop-opacity="1"></stop><stop offset="100%" stop-color="hsl(265, 55%, 60%)" stop-opacity="1"></stop></linearGradient></defs><g id="two-0" transform="matrix(1 0 0 1 0 0)" opacity="1"><path transform="matrix(1 0 0 1 350 350)" id="two-14" d="M 334.59174 98.244999 C 320.472414 159.510563 178.655814 40.083134 144.154458 92.642445 C 112.022154 141.592745 265.785905 217.454802 219.482705 253.296545 C 162.903892 297.092293 118.261971 86.768636 52.512741 114.986863 C 0.945051 137.118663 92.047869 261.499865 40.925213 284.641108 C 13.022327 297.271662 -11.57035 250.344242 -32.82303 228.289186 C -50.03726 210.425048 -51.893195 171.754844 -76.222913 166.904897 C -133.77483 155.432352 -184.297912 302.197281 -226.716368 261.644635 C -276.837972 213.72767 -88.343626 139.098699 -122.87868 78.969332 C -146.00242 38.708332 -221.453165 96.942973 -263.563859 77.389331 C -294.176002 63.174915 -340.595298 32.184982 -330.432629 0 C -312.199949 -57.742556 -175.298542 11.31725 -152.485941 -44.773912 C -139.631097 -76.381143 -206.522281 -98.707464 -206.685007 -132.828389 C -206.799563 -156.84888 -183.068298 -175.620021 -169.122865 -195.178191 C -153.673463 -216.845645 -134.763522 -236.880297 -117.382102 -257.03095 C -94.92648 -283.064236 -82.513615 -335.896541 -48.148587 -334.880774 C -4.763306 -333.598384 12.838739 -269.884464 33.299861 -231.605623 C 48.469033 -203.227006 32.963813 -149.259117 63.416465 -138.862689 C 116.065305 -120.888562 149.76389 -251.104029 202.665703 -233.88869 C 230.756096 -224.747498 231.897888 -179.1072 232.749692 -149.579145 C 233.631069 -119.025933 224.740895 -85.368453 206.701902 -60.693155 C 185.561235 -31.775118 113.668609 -35.692596 116.70495 -0.000001 C 123.390549 78.590101 352.30481 21.385722 334.59174 98.244999 Z " fill="url(#two-15)" stroke="undefined" stroke-width="1" stroke-opacity="1" fill-opacity="1" visibility="visible" stroke-linecap="butt" stroke-linejoin="miter" stroke-miterlimit="4"></path></g></svg>